<?xml version="1.0" encoding="UTF-8" standalone="no"?>
<!DOCTYPE svg  PUBLIC '-//W3C//DTD SVG 1.1//EN'  'http://www.w3.org/Graphics/SVG/1.1/DTD/svg11.dtd'>
<svg xmlns="http://www.w3.org/2000/svg">
<defs>
<font id="Sifonn-Basic" horiz-adv-x="592">
<font-face underline-position="-59" font-weight="700" descent="0" panose-1="0 0 0 0 0 0 0 0 0 0" units-per-em="1000" unicode-range="U+0020-00FE" bbox="-71 -252 1087 1024" x-height="505" underline-thickness="58" font-family="Sifonn" ascent="1000" cap-height="745"/>
<missing-glyph horiz-adv-x="1000"/>
<glyph glyph-name=".notdef" horiz-adv-x="1000"/>
<glyph glyph-name=".null" horiz-adv-x="0"/>
<glyph glyph-name="nonmarkingreturn" horiz-adv-x="333"/>
<glyph glyph-name="space" horiz-adv-x="421" unicode=" "/>
<glyph glyph-name="exclam" horiz-adv-x="297" unicode="!" d="M148 140q34 0 56 -22t22 -55q0 -31 -22 -53.5t-56 -22.5t-55.5 22t-21.5 54q0 33 22 55t55 22zM214 745v-510h-131v510h131z"/>
<glyph glyph-name="quotedbl" horiz-adv-x="385" unicode='&quot;' d="M303 531h-86v227h156zM118 531h-85v227h155z"/>
<glyph glyph-name="numbersign" horiz-adv-x="716" unicode="#" d="M319 438l-30 -122h119l32 122h-121zM209 0h-117l53 204h-102v112h131l32 122h-128v112h157l51 195h112l-49 -195h120l51 195h112l-49 -195h97v-112h-127l-30 -122h122v-112h-150l-52 -204h-117l53 204h-118z"/>
<glyph glyph-name="dollar" horiz-adv-x="556" unicode="$" d="M202 -85v80q-99 19 -172 101l128 94q43 -54 113 -54q38 0 64.5 26.5t26.5 62.5q0 45 -29 72t-83 33q-97 11 -155 68.5t-58 144.5q0 75 48.5 131.5t116.5 75.5v77h131v-81q72 -22 124 -84l-122 -89q-35 37 -79 37q-31 0 -50 -18t-19 -48q0 -63 104 -70q99 -6 165.5 -70 t66.5 -168q0 -89 -54.5 -155t-135.5 -86v-80h-131z"/>
<glyph glyph-name="percent" horiz-adv-x="897" unicode="%" d="M195 603q-24 0 -40.5 -18t-16.5 -47q0 -25 17 -43t40 -18q27 0 43.5 17.5t16.5 43.5q0 29 -17 47t-43 18zM195 372q-67 0 -116.5 49t-49.5 117q0 71 49 121t117 50q72 0 121.5 -50t49.5 -121q0 -68 -50 -117t-121 -49zM697 266q-24 0 -40.5 -18t-16.5 -47q0 -25 17 -43 t40 -18q26 0 43 18t17 43q0 29 -17 47t-43 18zM697 35q-67 0 -116.5 49.5t-49.5 116.5q0 71 49 121t117 50q72 0 121.5 -50t49.5 -121q0 -68 -50 -117t-121 -49zM340 0h-125l335 745h119z"/>
<glyph glyph-name="ampersand" horiz-adv-x="661" unicode="&amp;" d="M649 331v-122h-77q-12 -95 -84.5 -158.5t-170.5 -63.5q-119 0 -200 79t-81 198q0 82 45 147t122 93l-128 241h396v-131h-176l123 -237h-116q-50 0 -82.5 -34.5t-32.5 -89.5q0 -50 37.5 -86t92.5 -36q49 0 80.5 31.5t31.5 80.5v88h220z"/>
<glyph glyph-name="quotesingle" horiz-adv-x="200" unicode="&apos;" d="M118 531h-85v227h155z"/>
<glyph glyph-name="parenleft" horiz-adv-x="314" unicode="(" d="M181 758l97 -67q-107 -177 -107 -384q0 -218 114 -398l-103 -72q-139 220 -139 470q0 252 138 451z"/>
<glyph glyph-name="parenright" horiz-adv-x="314" unicode=")" d="M36 691l97 67q138 -199 138 -451t-139 -470l-103 72q115 181 115 398q0 205 -108 384z"/>
<glyph glyph-name="asterisk" horiz-adv-x="372" unicode="*" d="M75 450l-46 62l91 67l-91 67l46 62l72 -53v90h77v-90l73 53l46 -62l-92 -67l92 -67l-46 -62l-73 53v-90h-77v90z"/>
<glyph glyph-name="plus" horiz-adv-x="578" unicode="+" d="M350 111h-122v186h-181v112h181v187h122v-187h181v-112h-181v-186z"/>
<glyph glyph-name="comma" horiz-adv-x="282" unicode="," d="M103 -163h-88l67 227h160z"/>
<glyph glyph-name="hyphen" horiz-adv-x="385" unicode="-" d="M338 363v-111h-291v111h291z"/>
<glyph glyph-name="period" horiz-adv-x="274" unicode="." d="M137 140q34 0 55.5 -22t21.5 -55q0 -32 -21.5 -54t-55.5 -22t-55.5 22t-21.5 54q0 33 21.5 55t55.5 22z"/>
<glyph glyph-name="slash" horiz-adv-x="560" unicode="/" d="M102 -163h-133l465 908h126z"/>
<glyph glyph-name="zero" horiz-adv-x="850" unicode="0" d="M425 619q-98 0 -167 -72t-69 -175t69 -173.5t168 -70.5q98 0 166 70.5t68 173.5t-68.5 175t-166.5 72zM426 -13q-160 0 -273 113t-113 272q0 160 112.5 273t272.5 113t272 -112.5t112 -273.5q0 -159 -112 -272t-271 -113z"/>
<glyph glyph-name="one" horiz-adv-x="307" unicode="1" d="M261 745v-745h-145v614h-94v131h239z"/>
<glyph glyph-name="two" horiz-adv-x="520" unicode="2" d="M178 542q0 -32 23 -54.5t54 -22.5t54 22.5t23 54.5t-23 54.5t-54 22.5t-54 -22.5t-23 -54.5zM498 0h-472l204 333q-79 10 -132.5 70.5t-53.5 140.5q0 85 62 149.5t150 64.5t150.5 -63t62.5 -151q0 -60 -35 -118l-180 -295h244v-131z"/>
<glyph glyph-name="three" horiz-adv-x="519" unicode="3" d="M67 746h402l-138 -264q72 -27 114 -89t42 -139q0 -113 -74.5 -189.5t-183.5 -76.5q-62 0 -116.5 29.5t-90.5 79.5l119 87q32 -52 88 -52q45 0 76 32.5t31 77.5q0 50 -30.5 81.5t-76.5 31.5h-113l134 260h-183v131z"/>
<glyph glyph-name="four" horiz-adv-x="573" unicode="4" d="M458 383v-73h100v-131h-100v-179h-140v179h-310l286 566h147l-217 -435h94v73h140z"/>
<glyph glyph-name="five" horiz-adv-x="533" unicode="5" d="M81 745h332v-131h-199v-116h26q116 0 186.5 -67.5t70.5 -177.5q0 -114 -77.5 -190t-191.5 -76q-59 0 -114.5 28.5t-91.5 78.5l119 87q33 -50 87 -50q53 0 87 29t34 81q0 56 -29.5 84t-79.5 28h-159v392z"/>
<glyph glyph-name="six" horiz-adv-x="591" unicode="6" d="M290 353q-44 0 -74 -31.5t-30 -80.5q0 -45 30.5 -77.5t73.5 -32.5q45 0 75.5 32t30.5 78q0 50 -30 81t-76 31zM285 745h155l-139 -247q103 -4 174.5 -78.5t71.5 -178.5q0 -105 -75 -179.5t-182 -74.5q-104 0 -179 75t-75 179q0 68 40 138z"/>
<glyph glyph-name="seven" horiz-adv-x="522" unicode="7" d="M27 745h508l-380 -745h-154l311 614h-285v131z"/>
<glyph glyph-name="eight" horiz-adv-x="584" unicode="8" d="M290 618q-29 0 -49 -21.5t-20 -52.5t20 -52.5t49 -21.5q31 0 51 21.5t20 52.5t-20.5 52.5t-50.5 21.5zM290 353q-44 0 -74 -31.5t-30 -80.5q0 -45 30.5 -77.5t73.5 -32.5q45 0 75.5 32t30.5 78q0 49 -30.5 80.5t-75.5 31.5zM290 -13q-104 0 -179 75t-75 179q0 108 79 185 q-37 52 -37 118q0 88 62.5 151t149.5 63q89 0 151.5 -63t62.5 -151q0 -64 -36 -117q79 -76 79 -186q0 -105 -75 -179.5t-182 -74.5z"/>
<glyph glyph-name="nine" horiz-adv-x="591" unicode="9" d="M294 392q44 0 74 31.5t30 80.5q0 45 -30.5 77.5t-73.5 32.5q-45 0 -76 -32.5t-31 -77.5q0 -49 30.5 -80.5t76.5 -31.5zM298 0h-152l139 247q-105 2 -177 77t-72 180t75 179.5t183 74.5q104 0 178.5 -75t74.5 -179q0 -66 -27 -113z"/>
<glyph glyph-name="colon" horiz-adv-x="274" unicode=":" d="M137 526q34 0 55.5 -22t21.5 -55q0 -32 -21.5 -54t-55.5 -22t-55.5 22t-21.5 54q0 33 21.5 55t55.5 22zM137 140q34 0 55.5 -22t21.5 -55q0 -32 -21.5 -54t-55.5 -22t-55.5 22t-21.5 54q0 33 21.5 55t55.5 22z"/>
<glyph glyph-name="semicolon" horiz-adv-x="282" unicode=";" d="M150 526q34 0 56 -22t22 -55q0 -32 -22 -54t-56 -22q-33 0 -55 22.5t-22 53.5q0 33 21.5 55t55.5 22zM103 -163h-88l67 227h160z"/>
<glyph glyph-name="less" horiz-adv-x="427" unicode="&lt;" d="M29 352l351 363v-157l-201 -206l201 -194v-157z"/>
<glyph glyph-name="equal" horiz-adv-x="578" unicode="=" d="M513 526v-112h-449v112h449zM513 292v-112h-449v112h449z"/>
<glyph glyph-name="greater" horiz-adv-x="427" unicode="&gt;" d="M47 715l351 -363l-351 -351v157l201 194l-201 206v157z"/>
<glyph glyph-name="question" horiz-adv-x="441" unicode="?" d="M180 140q34 0 55.5 -22t21.5 -55q0 -32 -21.5 -54t-55.5 -22t-55.5 22t-21.5 54q0 33 21.5 55t55.5 22zM115 234v227h90q33 2 54.5 26.5t21.5 57.5q0 39 -23.5 63.5t-59.5 24.5q-47 0 -69 -41l-103 75q29 42 74.5 66.5t97.5 24.5q90 0 152 -62.5t62 -151.5 q0 -74 -47 -131.5t-119 -73.5v-105h-131z"/>
<glyph glyph-name="at" horiz-adv-x="944" unicode="@" d="M472 262q34 0 57.5 23t23.5 57q0 33 -23.5 56.5t-57.5 23.5q-32 0 -55.5 -23.5t-23.5 -56.5t23.5 -56.5t55.5 -23.5zM561 511h103v-351q60 31 93 88.5t33 134.5q0 115 -88.5 195.5t-216.5 80.5q-140 0 -235.5 -96t-95.5 -237q0 -136 95.5 -228.5t236.5 -92.5v-107 q-95 0 -179 34.5t-142 93t-91.5 137t-33.5 163.5q0 182 129 307.5t316 125.5q175 0 297 -110t122 -266q0 -141 -100.5 -248.5t-251.5 -129.5v168q-31 -22 -78 -22q-82 0 -136 54.5t-54 135.5q0 75 55 133.5t131 58.5q44 0 91 -22z"/>
<glyph glyph-name="A" horiz-adv-x="775" unicode="A" d="M381 472l-112 -232h226zM612 0l-49 100h-361l-48 -100h-160l393 758l394 -758h-169z"/>
<glyph glyph-name="B" horiz-adv-x="635" unicode="B" d="M226 467h78q50 0 67 19.5t17 49.5q0 69 -84 69h-78v-138zM226 140h110q47 0 73.5 25.5t26.5 69.5q0 45 -26 71t-74 26h-110v-192zM331 0h-260v745h239q109 0 173 -48.5t64 -148.5q0 -77 -53 -126q101 -69 101 -182q0 -109 -78 -174.5t-186 -65.5z"/>
<glyph glyph-name="C" horiz-adv-x="847" unicode="C" d="M650 329h157q-17 -144 -126.5 -243t-257.5 -99q-160 0 -271.5 112.5t-111.5 272.5t111.5 273t270.5 113q103 0 190.5 -49t138.5 -132l-121 -86q-40 59 -94 89t-113 30q-94 0 -159 -69.5t-65 -168.5q0 -98 65 -167t159 -69q84 0 147.5 54.5t79.5 138.5z"/>
<glyph glyph-name="D" horiz-adv-x="803" unicode="D" d="M226 140h148q97 0 163.5 66.5t66.5 166.5t-66.5 166t-164.5 66h-147v-465zM71 745h302q163 0 276.5 -107t113.5 -265q0 -159 -113.5 -266t-275.5 -107h-303v745z"/>
<glyph glyph-name="E" horiz-adv-x="573" unicode="E" d="M533 0h-462v745h396v-140h-241v-139h280v-139h-280v-187h307v-140z"/>
<glyph glyph-name="F" horiz-adv-x="536" unicode="F" d="M226 0h-155v745h396v-140h-241v-139h280v-139h-280v-327z"/>
<glyph glyph-name="G" horiz-adv-x="847" unicode="G" d="M809 407v-23q0 -165 -113 -281t-273 -116t-271.5 112.5t-111.5 272.5t111.5 273t270.5 113q103 0 190.5 -49t138.5 -132l-124 -90q-30 56 -84.5 89.5t-119.5 33.5q-94 0 -159 -69.5t-65 -168.5q0 -98 65 -167t159 -69q70 0 126 35t80 98h-202v138h382z"/>
<glyph glyph-name="H" horiz-adv-x="794" unicode="H" d="M71 745h155v-279h342v279h155v-745h-155v327h-342v-327h-155v745z"/>
<glyph glyph-name="I" horiz-adv-x="297" unicode="I" d="M226 745v-745h-155v745h155z"/>
<glyph glyph-name="J" horiz-adv-x="672" unicode="J" d="M322 745h286v-412q0 -148 -85 -247t-239 -99q-118 0 -199 60t-109 180l142 43q34 -134 167 -134q80 0 124.5 58.5t44.5 138.5v272h-132v140z"/>
<glyph glyph-name="K" horiz-adv-x="791" unicode="K" d="M226 745v-352l352 352h207l-366 -366l378 -379h-209l-279 280l-83 -83v-197h-155v745h155z"/>
<glyph glyph-name="L" horiz-adv-x="541" unicode="L" d="M71 745h155v-605h300v-140h-455v745z"/>
<glyph glyph-name="M" horiz-adv-x="936" unicode="M" d="M468 457l396 301v-758h-154v449l-242 -175l-242 175v-449h-155v758z"/>
<glyph glyph-name="N" horiz-adv-x="827" unicode="N" d="M601 314v431h155v-758l-530 441v-428h-155v759z"/>
<glyph glyph-name="O" horiz-adv-x="851" unicode="O" d="M425 610q-95 0 -160.5 -69t-65.5 -168q0 -100 65.5 -168.5t161.5 -68.5q95 0 160.5 68.5t65.5 168.5q0 98 -66.5 167.5t-160.5 69.5zM426 -13q-160 0 -273 113t-113 273t112.5 272.5t272.5 112.5t273 -112.5t113 -272.5t-112.5 -273t-272.5 -113z"/>
<glyph glyph-name="P" horiz-adv-x="667" unicode="P" d="M226 254h85q78 0 122.5 50t44.5 125q0 70 -43 123t-115 53h-94v-351zM226 0h-155v745h254q133 0 222.5 -91t89.5 -209q0 -144 -91 -238t-231 -94h-89v-113z"/>
<glyph glyph-name="Q" horiz-adv-x="850" unicode="Q" d="M425 610q-95 0 -160.5 -69.5t-65.5 -168.5t65.5 -167.5t161.5 -68.5q95 0 160.5 68.5t65.5 167.5t-66.5 168.5t-160.5 69.5zM272 -144l91 137q-139 22 -231 129t-92 250q0 160 112.5 273t272.5 113q161 0 273.5 -113t112.5 -273q0 -132 -81 -235.5t-206 -136.5h206v-144 h-458z"/>
<glyph glyph-name="R" horiz-adv-x="675" unicode="R" d="M226 269h64q92 0 141 44t49 127q0 72 -42 118.5t-118 46.5h-94v-336zM304 129h-78v-129h-155v745h259q131 0 220 -85.5t89 -207.5q0 -99 -44.5 -171t-123.5 -109l161 -172h-206z"/>
<glyph glyph-name="S" horiz-adv-x="556" unicode="S" d="M250 330q-97 11 -155 68.5t-58 144.5q0 90 68.5 152.5t150.5 62.5q121 0 201 -96l-122 -89q-35 37 -79 37q-31 0 -50 -18t-19 -48q0 -63 104 -70q99 -6 165.5 -70t66.5 -168q0 -106 -75.5 -177.5t-176.5 -71.5q-142 0 -241 109l128 94q43 -54 113 -54q38 0 64.5 26.5 t26.5 62.5q0 45 -29 72t-83 33z"/>
<glyph glyph-name="T" horiz-adv-x="573" unicode="T" d="M358 0h-155v605h-184v140h535v-140h-196v-605z"/>
<glyph glyph-name="U" horiz-adv-x="769" unicode="U" d="M386 -13q-158 0 -240 98t-82 260v400h155v-426q0 -88 42.5 -135.5t124.5 -47.5q84 0 125 48t41 135v426h153v-413q0 -162 -85 -253.5t-234 -91.5z"/>
<glyph glyph-name="V" horiz-adv-x="765" unicode="V" d="M398 308l213 437h160l-379 -758l-398 758h178z"/>
<glyph glyph-name="W" horiz-adv-x="1081" unicode="W" d="M714 308l212 437h161l-379 -758l-163 307l-153 -307l-398 758h178l226 -437l70 135l-158 302h178z"/>
<glyph glyph-name="X" horiz-adv-x="694" unicode="X" d="M240 383l-237 362h175l161 -249l157 249h164l-223 -353l255 -392h-174l-180 277l-173 -277h-164z"/>
<glyph glyph-name="Y" horiz-adv-x="764" unicode="Y" d="M389 379l218 366h163l-306 -505v-240h-154v226l-316 519h178z"/>
<glyph glyph-name="Z" horiz-adv-x="682" unicode="Z" d="M263 140h404v-140h-662l386 605h-348v140h611z"/>
<glyph glyph-name="bracketleft" horiz-adv-x="323" unicode="[" d="M286 -163h-215v921h215v-100h-98v-720h98v-101z"/>
<glyph glyph-name="backslash" horiz-adv-x="560" unicode="\" d="M591 -163h-132l-459 908h127z"/>
<glyph glyph-name="bracketright" horiz-adv-x="323" unicode="]" d="M251 -163h-215v101h98v720h-98v100h215v-921z"/>
<glyph glyph-name="asciicircum" horiz-adv-x="529" unicode="^" d="M264 1014l165 -206h-133l-32 43l-31 -43h-134z"/>
<glyph glyph-name="underscore" horiz-adv-x="698" unicode="_" d="M718 -59v-104h-738v104h738z"/>
<glyph glyph-name="grave" horiz-adv-x="761" unicode="`" d="M275 927l93 67l119 -186h-134z"/>
<glyph glyph-name="a" d="M291 130q50 0 82.5 34t32.5 88q0 53 -32.5 87.5t-82.5 34.5q-49 0 -83.5 -34.5t-34.5 -87.5t34 -87.5t84 -34.5zM400 505h142v-505h-142v36q-16 -21 -51.5 -34t-71.5 -13q-103 0 -175.5 77.5t-72.5 185.5q0 109 73 186.5t175 77.5q33 0 69.5 -14t53.5 -32v35z" unicode="a"/>
<glyph glyph-name="b" d="M301 130q50 0 84 34.5t34 87.5t-34.5 87.5t-83.5 34.5q-50 0 -82.5 -34.5t-32.5 -87.5q0 -54 32.5 -88t82.5 -34zM50 745h142v-275q17 18 53.5 32t69.5 14q102 0 175 -77.5t73 -186.5q0 -108 -72.5 -185.5t-175.5 -77.5q-36 0 -71.5 13t-51.5 34v-36h-142v745z" unicode="b"/>
<glyph glyph-name="c" horiz-adv-x="585" unicode="c" d="M411 232h146q-8 -101 -85 -172t-181 -71q-108 0 -185 77.5t-77 185.5q0 110 76.5 187t185.5 77q61 0 115 -26.5t92 -72.5l-113 -88q-35 45 -94 45q-49 0 -83.5 -34.5t-34.5 -87.5t34 -87.5t84 -34.5q47 0 80 28t40 74z"/>
<glyph glyph-name="d" d="M291 130q50 0 82.5 34t32.5 88q0 53 -32.5 87.5t-82.5 34.5q-49 0 -83.5 -34.5t-34.5 -87.5t34 -87.5t84 -34.5zM400 745h142v-745h-142v36q-16 -21 -51.5 -34t-71.5 -13q-103 0 -175.5 77.5t-72.5 185.5q0 109 73 186.5t175 77.5q33 0 69.5 -14t53.5 -32v275z" unicode="d"/>
<glyph glyph-name="e" horiz-adv-x="572" unicode="e" d="M173 252q0 -20 4 -33l184 131q-32 24 -70 24q-49 0 -83.5 -34.5t-34.5 -87.5zM412 181l113 -87q-32 -48 -93 -76.5t-129 -28.5q-114 0 -194 77.5t-80 185.5q0 110 76.5 187t185.5 77q90 0 158.5 -52t93.5 -126l-282 -202q16 -6 42 -6q76 0 109 51z"/>
<glyph glyph-name="f" horiz-adv-x="356" unicode="f" d="M342 752v-146q-48 0 -78.5 -25.5t-30.5 -63.5v-12h99v-131h-99v-374h-142v374h-69v131h69v7q0 103 73.5 171.5t177.5 68.5z"/>
<glyph glyph-name="g" d="M291 130q50 0 82.5 34t32.5 88q0 53 -32.5 87.5t-82.5 34.5q-49 0 -83.5 -34.5t-34.5 -87.5t34 -87.5t84 -34.5zM284 -111q49 0 82.5 31t33.5 76v40q-16 -21 -51.5 -34t-71.5 -13q-103 0 -175.5 77.5t-72.5 185.5q0 109 73 186.5t175 77.5q33 0 69.5 -14t53.5 -32v35h142 v-500q0 -106 -75.5 -181.5t-182.5 -75.5q-66 0 -122.5 31t-92.5 84l115 83q34 -57 100 -57z" unicode="g"/>
<glyph glyph-name="h" horiz-adv-x="602" unicode="h" d="M559 252v-252h-141v252q0 58 -29.5 90t-75.5 32q-49 0 -85 -35t-36 -87v-252h-142v745h142v-276q19 23 57 35t76 12q102 0 168 -76.5t66 -187.5z"/>
<glyph glyph-name="i" horiz-adv-x="242" unicode="i" d="M192 505v-505h-142v505h142zM120 594q-33 0 -57.5 24t-24.5 57q0 30 24.5 54t57.5 24q35 0 60 -23.5t25 -54.5q0 -33 -24.5 -57t-60.5 -24z"/>
<glyph glyph-name="j" horiz-adv-x="242" unicode="j" d="M120 594q-33 0 -57.5 24t-24.5 57q0 30 24.5 54t57.5 24q35 0 60 -23.5t25 -54.5q0 -33 -24.5 -57t-60.5 -24zM-54 -252v141q44 0 74 26.5t30 69.5v520h142v-512q0 -101 -72 -173t-174 -72z"/>
<glyph glyph-name="k" horiz-adv-x="588" unicode="k" d="M232 178l-40 -38v-140h-142v745h142v-441l215 201h176l-254 -236l265 -269h-181z"/>
<glyph glyph-name="l" horiz-adv-x="242" unicode="l" d="M50 745h142v-745h-142v745z"/>
<glyph glyph-name="m" horiz-adv-x="940" unicode="m" d="M543 252v-252h-142v252q0 63 -29 92.5t-80 29.5q-40 0 -70 -36t-30 -86v-252h-142v505h142v-35q17 20 53 33t71 13q55 0 101.5 -22.5t69.5 -57.5q60 80 180 80q111 0 170.5 -74t59.5 -190v-252h-141v252q0 56 -30 89t-74 33q-46 0 -77.5 -35.5t-31.5 -86.5z"/>
<glyph glyph-name="n" horiz-adv-x="602" unicode="n" d="M559 252v-252h-141v252q0 58 -29.5 90t-75.5 32q-50 0 -85.5 -32t-35.5 -90v-252h-142v505h142v-35q20 22 57.5 34t75.5 12q102 0 168 -76.5t66 -187.5z"/>
<glyph glyph-name="o" horiz-adv-x="586" unicode="o" d="M291 130q52 0 86.5 34t34.5 88q0 53 -34.5 87.5t-86.5 34.5q-49 0 -83.5 -34.5t-34.5 -87.5t34 -87.5t84 -34.5zM291 516q109 0 187.5 -77.5t78.5 -186.5q0 -108 -78.5 -185.5t-187.5 -77.5q-108 0 -185 77.5t-77 185.5q0 110 76.5 187t185.5 77z"/>
<glyph glyph-name="p" d="M301 374q-50 0 -82.5 -34t-32.5 -87q0 -54 32.5 -88.5t82.5 -34.5q49 0 83.5 35t34.5 88t-34.5 87t-83.5 34zM192 -241h-142v746h142v-35q17 18 53 32t70 14q104 0 176 -77t72 -185q0 -109 -73.5 -187t-177.5 -78q-80 0 -120 47v-277z" unicode="p"/>
<glyph glyph-name="q" d="M291 374q-49 0 -83.5 -34t-34.5 -87t34.5 -88t83.5 -35q50 0 82.5 34.5t32.5 88.5q0 53 -32.5 87t-82.5 34zM542 -241h-142v277q-40 -47 -120 -47q-104 0 -177.5 78t-73.5 187q0 108 72 185t176 77q34 0 70 -14t53 -32v35h142v-746z" unicode="q"/>
<glyph glyph-name="r" horiz-adv-x="352" unicode="r" d="M339 514v-147q-20 7 -45 7q-44 0 -73 -32t-29 -90v-252h-142v505h142v-35q43 46 112 46q22 0 35 -2z"/>
<glyph glyph-name="s" horiz-adv-x="402" unicode="s" d="M180 203q-70 10 -113.5 53t-43.5 107q0 63 53 108t113 45q96 0 151 -79l-102 -74q-23 21 -46 21q-30 0 -30 -26t54 -32q75 -10 119.5 -50t44.5 -114q0 -76 -55.5 -124.5t-138.5 -48.5q-107 0 -174 76l120 87q21 -22 55 -22q38 0 38 34q0 32 -45 39z"/>
<glyph glyph-name="t" horiz-adv-x="361" unicode="t" d="M346 374h-120v-161q0 -41 32.5 -62t84.5 -21v-141q-114 0 -186.5 61t-72.5 159v165h-76v131h76v66l142 103v-169h120v-131z"/>
<glyph glyph-name="u" horiz-adv-x="602" unicode="u" d="M43 242v263h142v-251q0 -54 30.5 -89t73.5 -35q53 0 87.5 29.5t34.5 94.5v251h141v-505h-141v36q-20 -22 -60.5 -34.5t-80.5 -12.5q-98 0 -162.5 73.5t-64.5 179.5z"/>
<glyph glyph-name="v" horiz-adv-x="512" unicode="v" d="M272 262l108 243h138l-251 -518l-273 518h157z"/>
<glyph glyph-name="w" horiz-adv-x="741" unicode="w" d="M502 263l106 242h139l-251 -518l-114 238l-114 -238l-274 518h157l121 -243l46 98l-68 145h136z"/>
<glyph glyph-name="x" horiz-adv-x="519" unicode="x" d="M260 149l-96 -149h-166l183 269l-148 236h147l80 -132l79 132h148l-149 -236l184 -269h-166z"/>
<glyph glyph-name="y" horiz-adv-x="574" unicode="y" d="M221 48l-227 457h156l146 -313l143 313h141l-347 -746h-147z"/>
<glyph glyph-name="z" horiz-adv-x="469" unicode="z" d="M451 0h-443l225 374h-195v131h416l-210 -370h207v-135z"/>
<glyph glyph-name="braceleft" horiz-adv-x="354" unicode="{" d="M119 58v66q0 51 -28.5 88.5t-78.5 37.5v95q50 0 78.5 37.5t28.5 89.5v65q0 105 54 160q55 61 152 61v-106q-45 0 -70.5 -34.5t-25.5 -80.5v-65q0 -99 -54 -161q-1 -2 -3.5 -4t-5.5 -5l-5 -5l14 -13q54 -60 54 -160v-66q0 -46 25.5 -80t70.5 -34v-107q-97 0 -152 61 q-54 57 -54 160z"/>
<glyph glyph-name="bar" horiz-adv-x="250" unicode="|" d="M179 744v-942h-108v942h108z"/>
<glyph glyph-name="braceright" horiz-adv-x="354" unicode="}" d="M235 58q0 -103 -54 -160q-55 -61 -152 -61v107q45 0 70.5 34t25.5 80v66q0 100 54 160l14 13l-14 14q-54 62 -54 161v65q0 46 -25.5 80.5t-70.5 34.5v106q97 0 152 -61q54 -55 54 -160v-65q0 -52 28.5 -89.5t79.5 -37.5v-95q-51 0 -79.5 -37.5t-28.5 -88.5v-66z"/>
<glyph glyph-name="asciitilde" horiz-adv-x="841" unicode="~" d="M289 813l-100 74q65 79 160 79q28 0 71.5 -18t64.5 -18q29 0 60 36l100 -72q-65 -86 -143 -86q-29 0 -69.5 20.5t-62.5 20.5q-38 0 -81 -36z"/>
<glyph glyph-name="exclamdown" horiz-adv-x="231" unicode="¡" d="M116 605q-34 0 -56 22t-22 55q0 32 22 54t56 22q33 0 55 -22.5t22 -53.5q0 -33 -22 -55t-55 -22zM181 510v-510h-131v510h131z"/>
<glyph glyph-name="cent" horiz-adv-x="847" unicode="¢" d="M650 329h157q-15 -131 -108 -226t-224 -112v-76h-108v77q-140 20 -233.5 127.5t-93.5 252.5t93.5 253t233.5 128v73h108v-71q87 -13 159.5 -59.5t116.5 -118.5l-121 -86q-40 59 -94 89t-113 30q-94 0 -159 -69.5t-65 -168.5q0 -98 65 -167t159 -69q84 0 147.5 54.5 t79.5 138.5z"/>
<glyph glyph-name="sterling" horiz-adv-x="630" unicode="£" d="M47 292v141h62v86q0 102 75 170t176 68q131 0 218 -109l-121 -88q-37 48 -97 48q-39 0 -68 -26.5t-29 -62.5v-86h121v-141h-121v-152h119q64 0 102 54l116 -85q-87 -109 -218 -109h-335v140h62v152h-62z"/>
<glyph glyph-name="currency" horiz-adv-x="642" unicode="¤" d="M320 466q-49 0 -85 -37t-36 -89t36 -88.5t86 -36.5q49 0 83.5 36.5t34.5 88.5t-35 89t-84 37zM321 92q-63 0 -117 28l-54 -54l-105 103l55 55q-28 54 -28 116q0 64 29 117l-56 56l105 105l56 -57q54 27 114 27q61 0 115 -28l58 58l104 -105l-57 -57q28 -54 28 -116 q0 -61 -28 -114l57 -57l-104 -103l-56 55q-55 -29 -116 -29z"/>
<glyph glyph-name="yen" horiz-adv-x="764" unicode="¥" d="M167 152v129h130l-303 464h178l221 -348l218 348h159l-302 -464h138v-129h-142v-152h-154v152h-143z"/>
<glyph glyph-name="brokenbar" horiz-adv-x="250" unicode="¦" d="M178 724v-407h-102v407h102zM178 229v-407h-102v407h102z"/>
<glyph glyph-name="section" horiz-adv-x="550" unicode="§" d="M272 405q-35 0 -61.5 -28t-26.5 -67t26.5 -67.5t63.5 -28.5t62 29t25 67q0 39 -26 67t-63 28zM267 813q86 0 146 -63.5t60 -157.5h-119q0 41 -25.5 71t-61.5 30q-39 0 -62.5 -24t-23.5 -59q0 -34 26.5 -59.5t62.5 -25.5q91 0 154 -63t63 -152q0 -92 -66 -153 q66 -64 66 -144q0 -85 -63 -145t-150 -60q-86 0 -145.5 63.5t-59.5 157.5h118q0 -39 26 -69.5t61 -30.5q39 0 62.5 24t23.5 60q0 33 -27 58t-63 25q-88 0 -150.5 63t-62.5 151q0 90 62 154q-64 59 -64 146q0 84 62.5 143.5t149.5 59.5z"/>
<glyph glyph-name="dieresis" horiz-adv-x="719" unicode="¨" d="M545 869q0 -28 -18.5 -46t-45.5 -18q-25 0 -43 17.5t-18 46.5q0 27 18 44.5t43 17.5q27 0 45.5 -17.5t18.5 -44.5zM284 869q0 -28 -18 -46t-45 -18q-26 0 -44 17.5t-18 46.5q0 27 18 44.5t44 17.5q27 0 45 -17.5t18 -44.5z"/>
<glyph glyph-name="copyright" horiz-adv-x="851" unicode="©" d="M527 346h102q-11 -76 -66.5 -126.5t-134.5 -50.5q-83 0 -141.5 59t-58.5 142q0 82 58.5 141.5t141.5 59.5q51 0 97.5 -25.5t74.5 -69.5l-79 -57q-41 57 -93 57q-42 0 -71 -31t-29 -75q0 -43 29 -74.5t71 -31.5q33 0 61 23.5t38 58.5zM425 663q-116 0 -196.5 -84.5 t-80.5 -205.5q0 -122 80 -206t198 -84q116 0 196.5 84t80.5 206q0 120 -81.5 205t-196.5 85zM426 -13q-160 0 -273 113t-113 273t112.5 272.5t272.5 112.5t273 -112.5t113 -272.5t-112.5 -273t-272.5 -113z"/>
<glyph glyph-name="ordfeminine" horiz-adv-x="495" unicode="ª" d="M244 556l-35 -70h69zM351 340l-26 51h-162l-24 -51h-109l218 413l216 -413h-113zM30 152v107h435v-107h-435z"/>
<glyph glyph-name="guillemotleft" horiz-adv-x="719" unicode="«" d="M316 372l311 266l63 -92l-209 -174l209 -174l-63 -92zM12 372l311 266l63 -92l-209 -174l209 -174l-63 -92z"/>
<glyph glyph-name="logicalnot" horiz-adv-x="498" unicode="¬" d="M480 460v-196h-101v95h-364v101h465z"/>
<glyph glyph-name="registered" horiz-adv-x="851" unicode="®" d="M390 344h18q78 0 78 68q0 30 -17 49t-47 19h-32v-136zM411 256h-21v-60h-94v371h130q67 0 112.5 -42.5t45.5 -106.5q0 -42 -20.5 -78t-52.5 -55l85 -89h-127zM425 663q-116 0 -196.5 -84.5t-80.5 -205.5q0 -122 80 -206t198 -84q116 0 196.5 84t80.5 206q0 120 -81.5 205 t-196.5 85zM426 -13q-160 0 -273 113t-113 273t112.5 272.5t272.5 112.5t273 -112.5t113 -272.5t-112.5 -273t-272.5 -113z"/>
<glyph glyph-name="macron" horiz-adv-x="837" unicode="¯" d="M210 820v134h413v-134h-413z"/>
<glyph glyph-name="degree" horiz-adv-x="338" unicode="°" d="M157 674q-13 0 -21.5 -9t-8.5 -24q0 -12 8.5 -21t21.5 -9t21 9t8 21q0 33 -29 33zM157 528q-47 0 -80.5 33.5t-33.5 79.5q0 49 33.5 83t80.5 34q49 0 83 -34t34 -83q0 -47 -34 -80t-83 -33z"/>
<glyph glyph-name="plusminus" horiz-adv-x="613" unicode="±" d="M549 152v-112h-485v112h485zM363 228h-113v186h-186v112h186v187h113v-187h186v-112h-186v-186z"/>
<glyph glyph-name="twosuperior" horiz-adv-x="278" unicode="²" d="M107 629q0 -13 9.5 -23t23.5 -10t23.5 10t9.5 23t-9.5 23t-23.5 10t-23.5 -10t-9.5 -23zM275 340h-273l111 179q-41 8 -67 39.5t-26 72.5q0 48 34.5 84.5t83.5 36.5q50 0 85 -35.5t35 -85.5q0 -32 -20 -65l-83 -138h120v-88z"/>
<glyph glyph-name="threesuperior" horiz-adv-x="291" unicode="³" d="M35 745h234l-74 -141q36 -18 56.5 -50.5t20.5 -72.5q0 -63 -41 -104.5t-101 -41.5q-73 0 -122 67l77 55q17 -29 45 -29q18 0 31.5 14t13.5 34q0 21 -13.5 34t-31.5 13h-73l70 136h-92v86z"/>
<glyph glyph-name="acute" horiz-adv-x="901" unicode="´" d="M464 994l94 -67l-78 -119h-134z"/>
<glyph glyph-name="mu" horiz-adv-x="602" unicode="µ" d="M55 -241v746h130v-269q0 -50 30.5 -83.5t73.5 -33.5q49 0 85.5 35.5t36.5 87.5v263h129v-505h-129v36q-20 -22 -60.5 -34.5t-80.5 -12.5q-45 0 -85 24v-254h-130z"/>
<glyph glyph-name="paragraph" horiz-adv-x="681" unicode="¶" d="M291 745h346v-87h-70v-658h-87v658h-101v-658h-88v219h-12q-104 0 -177 77.5t-73 186.5q0 108 76.5 185t185.5 77z"/>
<glyph glyph-name="periodcentered" horiz-adv-x="201" unicode="·" d="M100 412q29 0 47 -18.5t18 -46.5q0 -26 -18.5 -44.5t-46.5 -18.5t-46 18.5t-18 44.5q0 28 18 46.5t46 18.5z"/>
<glyph glyph-name="cedilla" horiz-adv-x="963" unicode="¸" d="M338 -9h139l-20 -26h148v-121h-364z"/>
<glyph glyph-name="onesuperior" horiz-adv-x="168" unicode="¹" d="M150 745v-405h-94v319h-48v86h142z"/>
<glyph glyph-name="ordmasculine" horiz-adv-x="459" unicode="º" d="M231 643q-39 0 -67.5 -30t-28.5 -71q0 -40 28.5 -71t67.5 -31t67.5 31t28.5 71q0 41 -28.5 71t-67.5 30zM229 333q-86 0 -147.5 61.5t-61.5 147.5q0 88 61 149t148 61q88 0 149 -61t61 -149q0 -86 -61.5 -147.5t-148.5 -61.5zM30 152v107h399v-107h-399z"/>
<glyph glyph-name="guillemotright" horiz-adv-x="719" unicode="»" d="M92 638l311 -266l-311 -266l-63 92l210 174l-210 174zM396 638l312 -266l-312 -266l-63 92l210 174l-210 174z"/>
<glyph glyph-name="questiondown" horiz-adv-x="441" unicode="¿" d="M261 605q-34 0 -55.5 22t-21.5 55q0 32 21.5 54t55.5 22q33 0 55 -22.5t22 -53.5q0 -33 -22 -55t-55 -22zM326 511v-227h-83q-36 0 -59.5 -24.5t-23.5 -59.5q0 -39 23.5 -63.5t59.5 -24.5q46 0 69 41l103 -75q-29 -42 -74.5 -66.5t-97.5 -24.5q-90 0 -152 62.5t-62 151.5 q0 74 46.5 131t119.5 73v106h131z"/>
<glyph glyph-name="Agrave" horiz-adv-x="775" unicode="À" d="M381 472l-112 -232h226zM612 0l-49 100h-361l-48 -100h-160l393 758l394 -758h-169zM234 927l93 67l119 -186h-134z"/>
<glyph glyph-name="Aacute" horiz-adv-x="775" unicode="Á" d="M381 472l-112 -232h226zM612 0l-49 100h-361l-48 -100h-160l393 758l394 -758h-169zM466 994l93 -67l-78 -119h-134z"/>
<glyph glyph-name="Acircumflex" horiz-adv-x="775" unicode="Â" d="M381 472l-112 -232h226zM612 0l-49 100h-361l-48 -100h-160l393 758l394 -758h-169zM385 1014l165 -206h-134l-31 43l-32 -43h-133z"/>
<glyph glyph-name="Atilde" horiz-adv-x="775" unicode="Ã" d="M381 472l-112 -232h226zM612 0l-49 100h-361l-48 -100h-160l393 758l394 -758h-169zM270 813l-99 74q64 79 159 79q29 0 72.5 -18t64.5 -18q30 0 59 36l100 -72q-65 -86 -143 -86q-29 0 -69 20.5t-63 20.5t-39.5 -7.5t-41.5 -28.5z"/>
<glyph glyph-name="Adieresis" horiz-adv-x="775" unicode="Ä" d="M381 472l-112 -232h226zM612 0l-49 100h-361l-48 -100h-160l393 758l394 -758h-169zM575 869q0 -28 -18.5 -46t-45.5 -18q-25 0 -43 17.5t-18 46.5q0 27 18 44.5t43 17.5q27 0 45.5 -17.5t18.5 -44.5zM315 869q0 -28 -18 -46t-46 -18q-26 0 -44 17.5t-18 46.5 q0 27 18 44.5t44 17.5q28 0 46 -17t18 -45z"/>
<glyph glyph-name="Aring" horiz-adv-x="775" unicode="Å" d="M381 472l-112 -232h226zM612 0l-49 100h-361l-48 -100h-160l393 758l394 -758h-169zM382 943q-12 0 -20 -9t-8 -23q0 -11 8.5 -20t19.5 -9q13 0 21 8.5t8 20.5q0 32 -29 32zM382 803q-44 0 -76 32t-32 76q0 48 31.5 80.5t76.5 32.5q48 0 80.5 -32.5t32.5 -80.5 q0 -45 -32.5 -76.5t-80.5 -31.5z"/>
<glyph glyph-name="AE" horiz-adv-x="1114" unicode="Æ" d="M381 472l-112 -232h226zM1074 0h-462l-49 100h-361l-48 -100h-160l393 758l225 -432v419h395v-140h-241v-139h281v-139h-281v-187h308v-140z"/>
<glyph glyph-name="Ccedilla" horiz-adv-x="847" unicode="Ç" d="M650 329h157q-15 -131 -110 -227t-227 -112l-20 -25h148v-121h-364l102 154q-129 29 -212.5 133.5t-83.5 240.5q0 160 111.5 273t270.5 113q103 0 190.5 -49t138.5 -132l-121 -86q-40 59 -94 89t-113 30q-94 0 -159 -69.5t-65 -168.5q0 -98 65 -167t159 -69 q84 0 147.5 54.5t79.5 138.5z"/>
<glyph glyph-name="Egrave" horiz-adv-x="573" unicode="È" d="M533 0h-462v745h396v-140h-241v-139h280v-139h-280v-187h307v-140zM145 927l94 67l118 -186h-134z"/>
<glyph glyph-name="Eacute" horiz-adv-x="573" unicode="É" d="M533 0h-462v745h396v-140h-241v-139h280v-139h-280v-187h307v-140zM329 994l93 -67l-78 -119h-134z"/>
<glyph glyph-name="Ecircumflex" horiz-adv-x="573" unicode="Ê" d="M533 0h-462v745h396v-140h-241v-139h280v-139h-280v-187h307v-140zM263 1014l165 -206h-133l-32 43l-31 -43h-134z"/>
<glyph glyph-name="Edieresis" horiz-adv-x="573" unicode="Ë" d="M533 0h-462v745h396v-140h-241v-139h280v-139h-280v-187h307v-140zM475 869q0 -28 -18.5 -46t-45.5 -18q-25 0 -43 17.5t-18 46.5q0 27 18 44.5t43 17.5q27 0 45.5 -17.5t18.5 -44.5zM214 869q0 -28 -18 -46t-45 -18q-26 0 -44 17.5t-18 46.5q0 27 18 44.5t44 17.5 q27 0 45 -17.5t18 -44.5z"/>
<glyph glyph-name="Igrave" horiz-adv-x="297" unicode="Ì" d="M226 745v-745h-155v745h155zM-7 927l93 67l119 -186h-134z"/>
<glyph glyph-name="Iacute" horiz-adv-x="297" unicode="Í" d="M226 745v-745h-155v745h155zM210 994l94 -67l-78 -119h-134z"/>
<glyph glyph-name="Icircumflex" horiz-adv-x="297" unicode="Î" d="M147 1014l165 -206h-133l-32 43l-31 -43h-134zM226 745v-745h-155v745h155z"/>
<glyph glyph-name="Idieresis" horiz-adv-x="297" unicode="Ï" d="M226 745v-745h-155v745h155zM336 869q0 -28 -18.5 -46t-46.5 -18q-25 0 -43 18t-18 46q0 27 18 44.5t43 17.5q28 0 46.5 -17.5t18.5 -44.5zM75 869q0 -28 -18 -46t-45 -18q-26 0 -44 17.5t-18 46.5q0 27 18 44.5t44 17.5q27 0 45 -17.5t18 -44.5z"/>
<glyph glyph-name="Eth" horiz-adv-x="803" unicode="Ð" d="M226 140h148q97 0 163.5 66.5t66.5 166.5t-66.5 166t-164.5 66h-147v-172h155v-141h-155v-152zM36 292v141h35v312h302q163 0 276.5 -107t113.5 -265q0 -159 -113.5 -266t-275.5 -107h-303v292h-35z"/>
<glyph glyph-name="Ntilde" horiz-adv-x="827" unicode="Ñ" d="M601 314v431h155v-758l-530 441v-428h-155v759zM282 813l-100 74q65 79 159 79q29 0 72.5 -18t64.5 -18q29 0 60 36l99 -72q-63 -86 -142 -86q-29 0 -69.5 20.5t-62.5 20.5q-38 0 -81 -36z"/>
<glyph glyph-name="Ograve" horiz-adv-x="851" unicode="Ò" d="M257 927l94 67l118 -186h-133zM425 610q-95 0 -160.5 -69t-65.5 -168q0 -100 65.5 -168.5t161.5 -68.5q95 0 160.5 68.5t65.5 168.5q0 98 -66.5 167.5t-160.5 69.5zM426 -13q-160 0 -273 113t-113 273t112.5 272.5t272.5 112.5t273 -112.5t113 -272.5t-112.5 -273 t-272.5 -113z"/>
<glyph glyph-name="Oacute" horiz-adv-x="851" unicode="Ó" d="M446 994l93 -67l-78 -119h-134zM425 610q-95 0 -160.5 -69t-65.5 -168q0 -100 65.5 -168.5t161.5 -68.5q95 0 160.5 68.5t65.5 168.5q0 98 -66.5 167.5t-160.5 69.5zM426 -13q-160 0 -273 113t-113 273t112.5 272.5t272.5 112.5t273 -112.5t113 -272.5t-112.5 -273 t-272.5 -113z"/>
<glyph glyph-name="Ocircumflex" horiz-adv-x="851" unicode="Ô" d="M425 1014l165 -206h-134l-31 43l-32 -43h-133zM425 610q-95 0 -160.5 -69t-65.5 -168q0 -100 65.5 -168.5t161.5 -68.5q95 0 160.5 68.5t65.5 168.5q0 98 -66.5 167.5t-160.5 69.5zM426 -13q-160 0 -273 113t-113 273t112.5 272.5t272.5 112.5t273 -112.5t113 -272.5 t-112.5 -273t-272.5 -113z"/>
<glyph glyph-name="Otilde" horiz-adv-x="851" unicode="Õ" d="M324 813l-100 74q65 79 159 79q29 0 72.5 -18t64.5 -18q29 0 60 36l100 -72q-65 -86 -143 -86q-29 0 -69.5 20.5t-62.5 20.5q-38 0 -81 -36zM425 610q-95 0 -160.5 -69t-65.5 -168q0 -100 65.5 -168.5t161.5 -68.5q95 0 160.5 68.5t65.5 168.5q0 98 -66.5 167.5 t-160.5 69.5zM426 -13q-160 0 -273 113t-113 273t112.5 272.5t272.5 112.5t273 -112.5t113 -272.5t-112.5 -273t-272.5 -113z"/>
<glyph glyph-name="Odieresis" horiz-adv-x="851" unicode="Ö" d="M620 869q0 -28 -18.5 -46t-45.5 -18q-26 0 -43.5 17.5t-17.5 46.5q0 27 18 44.5t43 17.5q27 0 45.5 -17.5t18.5 -44.5zM359 869q0 -28 -18 -46t-45 -18q-26 0 -44 17.5t-18 46.5q0 27 18 44.5t44 17.5q27 0 45 -17.5t18 -44.5zM425 610q-95 0 -160.5 -69t-65.5 -168 q0 -100 65.5 -168.5t161.5 -68.5q95 0 160.5 68.5t65.5 168.5q0 98 -66.5 167.5t-160.5 69.5zM426 -13q-160 0 -273 113t-113 273t112.5 272.5t272.5 112.5t273 -112.5t113 -272.5t-112.5 -273t-272.5 -113z"/>
<glyph glyph-name="multiply" horiz-adv-x="507" unicode="×" d="M123 143l-80 79l131 131l-131 131l80 80l131 -131l131 131l79 -80l-131 -131l131 -131l-79 -79l-131 131z"/>
<glyph glyph-name="Oslash" horiz-adv-x="851" unicode="Ø" d="M652 373q0 71 -40 134l-258 -360q32 -11 72 -11q95 0 160.5 68.5t65.5 168.5zM425 610q-95 0 -160.5 -69t-65.5 -168q0 -79 43 -143l261 364q-40 16 -78 16zM240 -13h-173l83 116q-110 112 -110 270q0 160 112.5 272.5t272.5 112.5q89 0 168 -38l19 25h171l-78 -107 q106 -111 106 -265q0 -160 -112.5 -273t-272.5 -113q-84 0 -162 35z"/>
<glyph glyph-name="Ugrave" horiz-adv-x="769" unicode="Ù" d="M250 927l94 67l118 -186h-133zM386 -13q-158 0 -240 98t-82 260v400h155v-426q0 -88 42.5 -135.5t124.5 -47.5q84 0 125 48t41 135v426h153v-413q0 -162 -85 -253.5t-234 -91.5z"/>
<glyph glyph-name="Uacute" horiz-adv-x="769" unicode="Ú" d="M429 994l94 -67l-79 -119h-133zM386 -13q-158 0 -240 98t-82 260v400h155v-426q0 -88 42.5 -135.5t124.5 -47.5q84 0 125 48t41 135v426h153v-413q0 -162 -85 -253.5t-234 -91.5z"/>
<glyph glyph-name="Ucircumflex" horiz-adv-x="769" unicode="Û" d="M388 1014l165 -206h-133l-32 43l-31 -43h-134zM386 -13q-158 0 -240 98t-82 260v400h155v-426q0 -88 42.5 -135.5t124.5 -47.5q84 0 125 48t41 135v426h153v-413q0 -162 -85 -253.5t-234 -91.5z"/>
<glyph glyph-name="Udieresis" horiz-adv-x="769" unicode="Ü" d="M584 869q0 -28 -18.5 -46t-46.5 -18q-25 0 -43 18t-18 46q0 27 18 44.5t43 17.5q28 0 46.5 -17.5t18.5 -44.5zM323 869q0 -28 -18 -46t-45 -18q-26 0 -44 17.5t-18 46.5q0 27 18 44.5t44 17.5q27 0 45 -17.5t18 -44.5zM386 -13q-158 0 -240 98t-82 260v400h155v-426 q0 -88 42.5 -135.5t124.5 -47.5q84 0 125 48t41 135v426h153v-413q0 -162 -85 -253.5t-234 -91.5z"/>
<glyph glyph-name="Yacute" horiz-adv-x="764" unicode="Ý" d="M389 379l218 366h163l-306 -505v-240h-154v226l-316 519h178zM468 994l93 -67l-78 -119h-133z"/>
<glyph glyph-name="Thorn" horiz-adv-x="671" unicode="Þ" d="M230 206h86q78 0 122.5 47t44.5 117q0 65 -43 114.5t-115 49.5h-95v-328zM230 0h-159v745h159v-71h100q132 0 222 -88t90 -201q0 -138 -91.5 -228.5t-231.5 -90.5h-89v-66z"/>
<glyph glyph-name="germandbls" horiz-adv-x="985" unicode="ß" d="M47 292v141h58v86q0 102 75.5 170t176.5 68q113 0 189 -74q65 49 137 49q112 0 186 -84l-119 -86q-32 27 -67 27q-29 0 -47 -16t-18 -49q0 -60 100 -67q95 -6 159.5 -67.5t64.5 -161.5q0 -103 -73 -172t-172 -69q-138 0 -231 105l121 91q44 -53 110 -53q39 0 65 25.5 t26 60.5q0 90 -111 102q-97 11 -155.5 66.5t-58.5 140.5q0 35 -30 59t-68 24q-40 0 -72.5 -24t-32.5 -65v-519h-155v292h-58z"/>
<glyph glyph-name="agrave" d="M291 130q50 0 82.5 34t32.5 88q0 53 -32.5 87.5t-82.5 34.5q-49 0 -83.5 -34.5t-34.5 -87.5t34 -87.5t84 -34.5zM400 505h142v-505h-142v36q-16 -21 -51.5 -34t-71.5 -13q-103 0 -175.5 77.5t-72.5 185.5q0 109 73 186.5t175 77.5q33 0 69.5 -14t53.5 -32v35zM182 693 l94 67l118 -186h-133z" unicode="à"/>
<glyph glyph-name="aacute" d="M291 130q50 0 82.5 34t32.5 88q0 53 -32.5 87.5t-82.5 34.5q-49 0 -83.5 -34.5t-34.5 -87.5t34 -87.5t84 -34.5zM400 505h142v-505h-142v36q-16 -21 -51.5 -34t-71.5 -13q-103 0 -175.5 77.5t-72.5 185.5q0 109 73 186.5t175 77.5q33 0 69.5 -14t53.5 -32v35zM356 760 l93 -67l-78 -119h-134z" unicode="á"/>
<glyph glyph-name="acircumflex" d="M291 130q50 0 82.5 34t32.5 88q0 53 -32.5 87.5t-82.5 34.5q-49 0 -83.5 -34.5t-34.5 -87.5t34 -87.5t84 -34.5zM400 505h142v-505h-142v36q-16 -21 -51.5 -34t-71.5 -13q-103 0 -175.5 77.5t-72.5 185.5q0 109 73 186.5t175 77.5q33 0 69.5 -14t53.5 -32v35zM299 780 l165 -206h-133l-32 43l-31 -43h-134z" unicode="â"/>
<glyph glyph-name="atilde" d="M291 130q50 0 82.5 34t32.5 88q0 53 -32.5 87.5t-82.5 34.5q-49 0 -83.5 -34.5t-34.5 -87.5t34 -87.5t84 -34.5zM400 505h142v-505h-142v36q-16 -21 -51.5 -34t-71.5 -13q-103 0 -175.5 77.5t-72.5 185.5q0 109 73 186.5t175 77.5q33 0 69.5 -14t53.5 -32v35zM184 579 l-100 74q65 79 159 79q29 0 72.5 -18t64.5 -18q29 0 60 36l99 -72q-65 -86 -143 -86q-28 0 -69 20.5t-63 20.5q-37 0 -80 -36z" unicode="ã"/>
<glyph glyph-name="adieresis" d="M291 130q50 0 82.5 34t32.5 88q0 53 -32.5 87.5t-82.5 34.5q-49 0 -83.5 -34.5t-34.5 -87.5t34 -87.5t84 -34.5zM400 505h142v-505h-142v36q-16 -21 -51.5 -34t-71.5 -13q-103 0 -175.5 77.5t-72.5 185.5q0 109 73 186.5t175 77.5q33 0 69.5 -14t53.5 -32v35zM497 635 q0 -28 -18.5 -46t-45.5 -18q-25 0 -43 17.5t-18 46.5q0 27 18 44.5t43 17.5q27 0 45.5 -17.5t18.5 -44.5zM236 635q0 -28 -18 -46t-45 -18q-26 0 -44 17.5t-18 46.5q0 27 18 44.5t44 17.5q27 0 45 -17.5t18 -44.5z" unicode="ä"/>
<glyph glyph-name="aring" d="M291 130q50 0 82.5 34t32.5 88q0 53 -32.5 87.5t-82.5 34.5q-49 0 -83.5 -34.5t-34.5 -87.5t34 -87.5t84 -34.5zM400 505h142v-505h-142v36q-16 -21 -51.5 -34t-71.5 -13q-103 0 -175.5 77.5t-72.5 185.5q0 109 73 186.5t175 77.5q33 0 69.5 -14t53.5 -32v35zM296 709 q-12 0 -20 -9t-8 -23q0 -11 8.5 -20t19.5 -9q12 0 20 8.5t8 20.5q0 14 -7.5 23t-20.5 9zM296 569q-45 0 -77 32t-32 76q0 48 32 80.5t77 32.5q47 0 79.5 -32.5t32.5 -80.5q0 -45 -32.5 -76.5t-79.5 -31.5z" unicode="å"/>
<glyph glyph-name="ae" horiz-adv-x="954" unicode="æ" d="M556 252q0 -9 2 -23l178 127q-29 18 -62 18q-50 0 -84 -34.5t-34 -87.5zM291 130q50 0 84.5 32.5t36.5 83.5v6q0 53 -34.5 87.5t-86.5 34.5q-49 0 -83.5 -34.5t-34.5 -87.5t34 -87.5t84 -34.5zM400 505h142v-32q19 20 56.5 31.5t75.5 11.5q90 0 158.5 -52t92.5 -126 l-282 -202q16 -6 42 -6q78 0 109 51l114 -87q-33 -48 -94 -76.5t-129 -28.5q-41 0 -81.5 12.5t-61.5 33.5v-35h-142v36q-19 -21 -55.5 -34t-68.5 -13q-102 0 -174.5 77.5t-72.5 185.5q0 110 76.5 187t185.5 77q29 0 60 -11t49 -32v32z"/>
<glyph glyph-name="ccedilla" horiz-adv-x="586" unicode="ç" d="M411 232h146q-7 -89 -69 -156t-150 -82l-21 -29h147v-121h-364l106 160q-78 27 -127.5 95t-49.5 153q0 110 76.5 187t185.5 77q61 0 115 -26.5t92 -72.5l-114 -89q-31 46 -93 46q-49 0 -83.5 -34.5t-34.5 -87.5t34 -87.5t84 -34.5q47 0 80 28t40 74z"/>
<glyph glyph-name="egrave" horiz-adv-x="572" unicode="è" d="M173 252q0 -9 2 -23l178 127q-28 18 -62 18q-49 0 -83.5 -34.5t-34.5 -87.5zM147 693l94 67l118 -186h-133zM412 181l113 -87q-32 -48 -93 -76.5t-129 -28.5q-114 0 -194 77.5t-80 185.5q0 110 76.5 187t185.5 77q90 0 158.5 -52t93.5 -126l-282 -202q16 -6 42 -6 q76 0 109 51z"/>
<glyph glyph-name="eacute" horiz-adv-x="572" unicode="é" d="M173 252q0 -9 2 -23l178 127q-28 18 -62 18q-49 0 -83.5 -34.5t-34.5 -87.5zM301 760l93 -67l-78 -119h-134zM412 181l113 -87q-32 -48 -93 -76.5t-129 -28.5q-114 0 -194 77.5t-80 185.5q0 110 76.5 187t185.5 77q90 0 158.5 -52t93.5 -126l-282 -202q16 -6 42 -6 q76 0 109 51z"/>
<glyph glyph-name="ecircumflex" horiz-adv-x="572" unicode="ê" d="M173 252q0 -9 2 -23l178 127q-28 18 -62 18q-49 0 -83.5 -34.5t-34.5 -87.5zM276 780l165 -206h-133l-32 43l-32 -43h-133zM412 181l113 -87q-32 -48 -93 -76.5t-129 -28.5q-114 0 -194 77.5t-80 185.5q0 110 76.5 187t185.5 77q90 0 158.5 -52t93.5 -126l-282 -202 q16 -6 42 -6q76 0 109 51z"/>
<glyph glyph-name="edieresis" horiz-adv-x="572" unicode="ë" d="M173 252q0 -9 2 -23l178 127q-28 18 -62 18q-49 0 -83.5 -34.5t-34.5 -87.5zM471 635q0 -28 -18.5 -46t-45.5 -18q-25 0 -43 17.5t-18 46.5q0 27 18 44.5t43 17.5q27 0 45.5 -17.5t18.5 -44.5zM210 635q0 -28 -17.5 -46t-45.5 -18q-26 0 -44 17.5t-18 46.5q0 27 18 44.5 t44 17.5q28 0 45.5 -17t17.5 -45zM412 181l113 -87q-32 -48 -93 -76.5t-129 -28.5q-114 0 -194 77.5t-80 185.5q0 110 76.5 187t185.5 77q90 0 158.5 -52t93.5 -126l-282 -202q16 -6 42 -6q76 0 109 51z"/>
<glyph glyph-name="igrave" horiz-adv-x="242" unicode="ì" d="M-20 693l94 67l118 -186h-133zM192 505v-505h-142v505h142z"/>
<glyph glyph-name="iacute" horiz-adv-x="242" unicode="í" d="M192 505v-505h-142v505h142zM168 760l94 -67l-78 -119h-134z"/>
<glyph glyph-name="icircumflex" horiz-adv-x="242" unicode="î" d="M123 780l165 -206h-134l-31 43l-32 -43h-133zM192 505v-505h-142v505h142z"/>
<glyph glyph-name="idieresis" horiz-adv-x="242" unicode="ï" d="M315 635q0 -28 -18.5 -46t-46.5 -18q-25 0 -42.5 18t-17.5 46q0 27 17.5 44.5t42.5 17.5q28 0 46.5 -17.5t18.5 -44.5zM54 635q0 -28 -18 -46t-45 -18q-26 0 -44 17.5t-18 46.5q0 27 18 44.5t44 17.5q27 0 45 -17.5t18 -44.5zM192 505v-505h-142v505h142z"/>
<glyph glyph-name="eth" horiz-adv-x="603" unicode="ð" d="M291 130q52 0 86.5 34t34.5 88q0 53 -34.5 87.5t-86.5 34.5q-49 0 -83.5 -34.5t-34.5 -87.5t34 -87.5t84 -34.5zM374 541l-83 21l13 46q-20 3 -40 3v117q30 0 70 -7l16 55l83 -23l-18 -63q60 -33 95 -91q47 -80 47 -257v-90q0 -108 -78.5 -185.5t-187.5 -77.5 q-108 0 -185 77.5t-77 185.5q0 110 76.5 187t185.5 77q82 0 155 -50v4q0 69 -61 109z"/>
<glyph glyph-name="ntilde" horiz-adv-x="602" unicode="ñ" d="M559 252v-252h-141v252q0 58 -29.5 90t-75.5 32q-50 0 -85.5 -32t-35.5 -90v-252h-142v505h142v-35q20 22 57.5 34t75.5 12q102 0 168 -76.5t66 -187.5zM160 579l-99 74q64 79 159 79q29 0 72.5 -18t64.5 -18q30 0 59 36l100 -72q-65 -86 -143 -86q-29 0 -69 20.5 t-63 20.5t-39.5 -7.5t-41.5 -28.5z"/>
<glyph glyph-name="ograve" horiz-adv-x="586" unicode="ò" d="M136 693l93 67l118 -186h-133zM291 130q52 0 86.5 34t34.5 88q0 53 -34.5 87.5t-86.5 34.5q-49 0 -83.5 -34.5t-34.5 -87.5t34 -87.5t84 -34.5zM291 516q109 0 187.5 -77.5t78.5 -186.5q0 -108 -78.5 -185.5t-187.5 -77.5q-108 0 -185 77.5t-77 185.5q0 110 76.5 187 t185.5 77z"/>
<glyph glyph-name="oacute" horiz-adv-x="586" unicode="ó" d="M344 760l93 -67l-78 -119h-133zM291 130q52 0 86.5 34t34.5 88q0 53 -34.5 87.5t-86.5 34.5q-49 0 -83.5 -34.5t-34.5 -87.5t34 -87.5t84 -34.5zM291 516q109 0 187.5 -77.5t78.5 -186.5q0 -108 -78.5 -185.5t-187.5 -77.5q-108 0 -185 77.5t-77 185.5q0 110 76.5 187 t185.5 77z"/>
<glyph glyph-name="ocircumflex" horiz-adv-x="586" unicode="ô" d="M288 780l165 -206h-134l-31 43l-32 -43h-133zM291 130q52 0 86.5 34t34.5 88q0 53 -34.5 87.5t-86.5 34.5q-49 0 -83.5 -34.5t-34.5 -87.5t34 -87.5t84 -34.5zM291 516q109 0 187.5 -77.5t78.5 -186.5q0 -108 -78.5 -185.5t-187.5 -77.5q-108 0 -185 77.5t-77 185.5 q0 110 76.5 187t185.5 77z"/>
<glyph glyph-name="otilde" horiz-adv-x="586" unicode="õ" d="M172 579l-100 74q65 79 160 79q28 0 71.5 -18t64.5 -18q29 0 60 36l100 -72q-65 -86 -143 -86q-29 0 -69.5 20.5t-62.5 20.5q-38 0 -81 -36zM291 130q52 0 86.5 34t34.5 88q0 53 -34.5 87.5t-86.5 34.5q-49 0 -83.5 -34.5t-34.5 -87.5t34 -87.5t84 -34.5zM291 516 q109 0 187.5 -77.5t78.5 -186.5q0 -108 -78.5 -185.5t-187.5 -77.5q-108 0 -185 77.5t-77 185.5q0 110 76.5 187t185.5 77z"/>
<glyph glyph-name="odieresis" horiz-adv-x="586" unicode="ö" d="M483 635q0 -28 -18.5 -46t-45.5 -18q-25 0 -43 17.5t-18 46.5q0 27 18 44.5t43 17.5q27 0 45.5 -17.5t18.5 -44.5zM222 635q0 -28 -18 -46t-45 -18q-26 0 -44 17.5t-18 46.5q0 27 18 44.5t44 17.5q27 0 45 -17.5t18 -44.5zM291 130q52 0 86.5 34t34.5 88q0 53 -34.5 87.5 t-86.5 34.5q-49 0 -83.5 -34.5t-34.5 -87.5t34 -87.5t84 -34.5zM291 516q109 0 187.5 -77.5t78.5 -186.5q0 -108 -78.5 -185.5t-187.5 -77.5q-108 0 -185 77.5t-77 185.5q0 110 76.5 187t185.5 77z"/>
<glyph glyph-name="divide" horiz-adv-x="578" unicode="÷" d="M296 615q34 0 55 -21.5t21 -54.5q0 -30 -21 -50.5t-55 -20.5q-31 0 -52 21t-21 50q0 33 20.5 54.5t52.5 21.5zM296 239q34 0 55 -21.5t21 -53.5q0 -31 -21 -52t-55 -21q-31 0 -52 21.5t-21 51.5q0 32 21 53.5t52 21.5zM531 409v-112h-484v112h484z"/>
<glyph glyph-name="oslash" horiz-adv-x="586" unicode="ø" d="M173 252q0 -36 16 -65l109 187h-7q-49 0 -83.5 -34.5t-34.5 -87.5zM291 130q52 0 86.5 34t34.5 88q0 38 -19 66l-107 -188h5zM291 516q39 0 81 -13l8 13h126l-38 -68q89 -81 89 -196q0 -108 -78.5 -185.5t-187.5 -77.5q-37 0 -78 12l-6 -12h-132l40 68q-86 78 -86 195 q0 110 76.5 187t185.5 77z"/>
<glyph glyph-name="ugrave" horiz-adv-x="602" unicode="ù" d="M43 242v263h142v-251q0 -54 30.5 -89t73.5 -35q53 0 87.5 29.5t34.5 94.5v251h141v-505h-141v36q-20 -22 -60.5 -34.5t-80.5 -12.5q-98 0 -162.5 73.5t-64.5 179.5zM159 693l94 67l118 -186h-134z"/>
<glyph glyph-name="uacute" horiz-adv-x="602" unicode="ú" d="M43 242v263h142v-251q0 -54 30.5 -89t73.5 -35q53 0 87.5 29.5t34.5 94.5v251h141v-505h-141v36q-20 -22 -60.5 -34.5t-80.5 -12.5q-98 0 -162.5 73.5t-64.5 179.5zM347 760l94 -67l-78 -119h-134z"/>
<glyph glyph-name="ucircumflex" horiz-adv-x="602" unicode="û" d="M43 242v263h142v-251q0 -54 30.5 -89t73.5 -35q53 0 87.5 29.5t34.5 94.5v251h141v-505h-141v36q-20 -22 -60.5 -34.5t-80.5 -12.5q-98 0 -162.5 73.5t-64.5 179.5zM299 780l165 -206h-133l-32 43l-31 -43h-134z"/>
<glyph glyph-name="udieresis" horiz-adv-x="602" unicode="ü" d="M43 242v263h142v-251q0 -54 30.5 -89t73.5 -35q53 0 87.5 29.5t34.5 94.5v251h141v-505h-141v36q-20 -22 -60.5 -34.5t-80.5 -12.5q-98 0 -162.5 73.5t-64.5 179.5zM490 635q0 -28 -18.5 -46t-45.5 -18q-26 0 -43.5 17.5t-17.5 46.5q0 27 18 44.5t43 17.5 q27 0 45.5 -17.5t18.5 -44.5zM229 635q0 -28 -18 -46t-45 -18q-26 0 -44 17.5t-18 46.5q0 27 18 44.5t44 17.5q27 0 45 -17.5t18 -44.5z"/>
<glyph glyph-name="yacute" horiz-adv-x="574" unicode="ý" d="M221 48l-227 457h156l146 -313l143 313h141l-347 -746h-147zM336 760l93 -67l-78 -119h-134z"/>
<glyph glyph-name="thorn" d="M301 374q-50 0 -82.5 -34t-32.5 -87q0 -54 32.5 -88.5t82.5 -34.5q49 0 83.5 35t34.5 88t-34.5 87t-83.5 34zM192 -241h-142v986h142v-275q20 20 55 33t68 13q107 0 177.5 -76t70.5 -186t-72.5 -187.5t-175.5 -77.5q-33 0 -68 12t-55 35v-277z" unicode="þ"/>
</font>
</defs>
</svg>
